<svg width="960" height="689" viewBox="0 0 960 689" fill="none" xmlns="http://www.w3.org/2000/svg">
<path d="M-369.131 460.831C-347.966 381.441 -415.309 378.265 -416.828 275.852C-417.436 233.988 -395.461 191.17 -342.65 171.799C-316.725 162.166 -290.852 155.55 -267.762 140.043C-215.103 105.217 -206.904 57.5547 -192.777 1.02913C-161.232 -123.084 -49.0243 -203.084 73.7628 -199.909C162.321 -197.58 242.373 -194.616 323.084 -116.179C378.528 -62.2469 377.932 3.91124 429.072 59.3253C483.352 118.021 494.56 146.178 568.891 165.178C639.12 182.803 715.577 203.974 769.35 257.535C819.984 307.762 812.541 360.319 790.869 422.031C766.97 490.041 818.819 536.352 872.846 562.868C918.416 585.15 978.873 583.192 1000.04 636.595C1022.92 694.444 954.872 695.396 891.631 695.396C828.389 695.396 100.953 690.104 -127.962 697.408C-189.584 699.313 -404.518 698.23 -432.266 617.994C-451.203 563.321 -383.967 516.086 -369.131 460.831Z" fill="#F7FAFF"/>
</svg>
