<svg width="120" height="120" viewBox="0 0 120 120" fill="none" xmlns="http://www.w3.org/2000/svg">
<rect width="120" height="120" rx="60" fill="#3878F4" fill-opacity="0.08"/>
<rect x="13" y="13" width="94" height="94" rx="47" stroke="#3878F4" stroke-opacity="0.45" stroke-width="2"/>
<path d="M51.8506 73.2717C51.8379 73.2092 51.8193 73.1477 51.7949 73.0881C51.7705 73.0295 51.7402 72.9729 51.7051 72.9202C51.6699 72.8665 51.6289 72.8167 51.584 72.7717C51.5391 72.7268 51.4893 72.6858 51.4355 72.6506C51.3828 72.6155 51.3262 72.5852 51.2666 72.5608C51.208 72.5364 51.1465 72.5168 51.084 72.5051C50.958 72.4797 50.8281 72.4797 50.7031 72.5051C50.6406 72.5168 50.5791 72.5364 50.5195 72.5608C50.4609 72.5852 50.4043 72.6155 50.3516 72.6506C50.2979 72.6858 50.248 72.7268 50.2031 72.7717C50.1582 72.8167 50.1172 72.8665 50.082 72.9202C50.0459 72.9729 50.0166 73.0295 49.9922 73.0881C49.9678 73.1477 49.9482 73.2092 49.9365 73.2717C49.9238 73.3342 49.917 73.3987 49.917 73.4622C49.917 73.5256 49.9238 73.5901 49.9365 73.6526C49.9482 73.7151 49.9678 73.7766 49.9922 73.8352C50.0166 73.8948 50.0459 73.9514 50.082 74.0042C50.1172 74.0579 50.1582 74.1077 50.2031 74.1526C50.248 74.1975 50.2979 74.2385 50.3516 74.2737C50.4043 74.3089 50.4609 74.3392 50.5195 74.3636C50.5791 74.388 50.6406 74.4076 50.7031 74.4193C50.7656 74.432 50.8301 74.4388 50.8936 74.4388C50.957 74.4388 51.0215 74.432 51.084 74.4193C51.1465 74.4076 51.208 74.388 51.2666 74.3636C51.3262 74.3392 51.3828 74.3088 51.4355 74.2737C51.4893 74.2385 51.5391 74.1975 51.584 74.1526C51.6289 74.1077 51.6699 74.0579 51.7051 74.0042C51.7402 73.9514 51.7705 73.8948 51.7949 73.8352C51.8193 73.7766 51.8379 73.7151 51.8506 73.6526C51.8633 73.5901 51.8701 73.5256 51.8701 73.4622C51.8701 73.3987 51.8633 73.3342 51.8506 73.2717Z" fill="#3878F4"/>
<path d="M79.9212 73.5725C79.9174 73.5627 79.9135 73.5531 79.9094 73.5435C79.0106 71.4403 76.9025 70.6629 74.4078 71.515L67.6043 73.3964C67.2109 72.2052 66.2298 71.1916 64.8425 70.6767C64.8339 70.6736 64.8253 70.6705 64.8166 70.6675L57.338 68.1292C56.7155 67.3247 54.7657 65.2659 51.115 65.2659C48.5638 65.2659 46.3068 67.0161 45.0156 68.9238H35.9766C35.4372 68.9238 35 69.361 35 69.9003V82.2125C35 82.7519 35.4372 83.1891 35.9766 83.1891H41.7829C42.3223 83.1891 42.7595 82.7519 42.7595 82.2125V81.3694H45.4824C46.0218 81.3694 46.459 80.9322 46.459 80.3928V80.1118C48.0463 80.2502 48.5684 80.5513 50.0262 81.3919C51.1473 82.0384 52.8417 83.0155 55.8931 84.3874C55.9072 84.3938 55.9216 84.3998 55.9359 84.4055C56.5216 84.6359 57.6664 84.9978 59.0778 84.9978C60.0603 84.9978 61.1721 84.8223 62.3133 84.305L77.3515 78.9207C77.3782 78.9111 77.4046 78.9003 77.4304 78.8884C78.8676 78.2272 81.0093 76.3636 79.9212 73.5725ZM40.8063 81.2359H36.9531V70.8768H40.8063V81.2359ZM44.5059 79.4162H42.7595V70.8768H44.5059V79.4162ZM76.65 77.0971L61.6186 82.479C61.6054 82.4837 61.5875 82.4908 61.5745 82.496C61.5613 82.5014 61.5481 82.5071 61.5352 82.513C59.4417 83.4751 57.4518 82.8992 56.6719 82.5959C53.7244 81.2697 52.1513 80.3625 51.0019 79.6998C49.4038 78.7783 48.6338 78.3341 46.459 78.1545V70.2891C47.3847 68.7719 49.1798 67.2189 51.1151 67.2189C54.4341 67.2189 55.8404 69.3776 55.8957 69.4647C56.0149 69.6586 56.1982 69.8048 56.4138 69.878L64.175 72.5122C65.4146 72.9774 66.0696 74.0389 65.7686 75.0975C65.6296 75.5864 65.3085 75.9918 64.8646 76.2392C64.4244 76.4844 63.9156 76.5451 63.4307 76.4109L54.6813 73.6382C54.1669 73.4752 53.6183 73.76 53.4554 74.2742C53.2924 74.7883 53.5771 75.3372 54.0913 75.5001L62.8559 78.2776C62.8651 78.2805 62.8744 78.2833 62.8838 78.286C63.2337 78.3855 63.5899 78.4347 63.944 78.4347C64.5923 78.4347 65.2334 78.2696 65.8152 77.9454C66.7149 77.4441 67.3655 76.6224 67.6472 75.6317C67.6696 75.5526 67.6896 75.4735 67.7068 75.3944L75.0392 73.3631C76.0981 73.0014 77.4883 72.871 78.1072 74.2965C78.7479 75.9701 77.0828 76.8907 76.65 77.0971Z" fill="#3878F4"/>
<path d="M70.0645 47.8459C70.0518 47.7834 70.0332 47.7219 70.0078 47.6624C69.9834 47.6038 69.9541 47.5471 69.918 47.4944C69.8828 47.4407 69.8418 47.3909 69.7969 47.3459C69.752 47.301 69.7021 47.26 69.6484 47.2249C69.5957 47.1897 69.5391 47.1594 69.4805 47.135C69.4209 47.1106 69.3594 47.0911 69.2979 47.0793C69.1719 47.054 69.042 47.054 68.916 47.0793C68.8535 47.0911 68.792 47.1106 68.7334 47.135C68.6738 47.1594 68.6172 47.1897 68.5645 47.2249C68.5107 47.26 68.4609 47.301 68.416 47.3459C68.3711 47.3909 68.3301 47.4407 68.2949 47.4944C68.2598 47.5471 68.2295 47.6038 68.2051 47.6624C68.1807 47.7219 68.1611 47.7834 68.1494 47.8459C68.1367 47.9084 68.1299 47.9729 68.1299 48.0364C68.1299 48.0999 68.1367 48.1643 68.1494 48.2268C68.1611 48.2893 68.1807 48.3508 68.2051 48.4094C68.2295 48.469 68.2598 48.5256 68.2949 48.5784C68.3301 48.6321 68.3711 48.6819 68.416 48.7268C68.4609 48.7717 68.5107 48.8127 68.5645 48.8479C68.6172 48.8831 68.6738 48.9133 68.7334 48.9377C68.792 48.9622 68.8535 48.9807 68.916 48.9934C68.9785 49.0061 69.043 49.0129 69.1064 49.0129C69.1699 49.0129 69.2344 49.0061 69.2979 48.9934C69.3594 48.9807 69.4209 48.9622 69.4805 48.9377C69.5391 48.9133 69.5957 48.8831 69.6484 48.8479C69.7021 48.8127 69.752 48.7717 69.7969 48.7268C69.8418 48.6819 69.8828 48.6321 69.918 48.5784C69.9541 48.5256 69.9834 48.469 70.0078 48.4094C70.0332 48.3508 70.0518 48.2893 70.0645 48.2268C70.0771 48.1643 70.083 48.0999 70.083 48.0364C70.083 47.9729 70.0771 47.9084 70.0645 47.8459Z" fill="#3878F4"/>
<path d="M84.0234 38.3096H78.217C77.6777 38.3096 77.2405 38.7468 77.2405 39.2862V40.1293H74.5175C73.9781 40.1293 73.5409 40.5665 73.5409 41.1059V41.3869C71.9536 41.2484 71.4316 40.9474 69.9739 40.1068C68.8528 39.4603 67.1583 38.4832 64.1069 37.1113C64.0927 37.1048 64.0784 37.0989 64.0639 37.0932C63.0706 36.7024 60.4674 35.9334 57.687 37.1935L53.7574 38.6005L50.4449 35.2882C50.0636 34.9069 49.4452 34.9069 49.0639 35.2882L38.1891 46.1629C37.8373 46.5148 37.7699 47.1248 38.1891 47.5441L56.7718 66.1268C57.0692 66.4242 57.7655 66.5142 58.153 66.1268L68.0812 56.1987C68.3393 56.2209 68.6072 56.2329 68.8848 56.2329C71.4362 56.2329 73.693 54.4827 74.9841 52.5751H84.0234C84.5627 52.5751 84.9999 52.1379 84.9999 51.5986V39.2862C84.9999 38.7468 84.5627 38.3096 84.0234 38.3096ZM49.7543 37.3598L51.9801 39.5856C51.3185 39.9948 50.5535 40.2137 49.7543 40.2137C48.955 40.2137 48.1902 39.9948 47.5285 39.5856L49.7543 37.3598ZM42.4866 49.0793L40.2608 46.8534L42.4866 44.6277C42.8957 45.2893 43.1147 46.0542 43.1147 46.8534C43.1147 47.6527 42.8958 48.4176 42.4866 49.0793ZM57.4624 64.0551L55.237 61.8297C56.5957 60.9912 58.3289 60.9912 59.6877 61.8297L57.4624 64.0551ZM61.0948 60.4229C58.9367 58.8574 55.9881 58.8574 53.8301 60.4229L43.8935 50.4862C44.6561 49.4373 45.0678 48.1775 45.0678 46.8534C45.0678 45.5293 44.6562 44.2696 43.8935 43.2207L46.1217 40.9926C47.1705 41.7552 48.4303 42.1669 49.7544 42.1669C51.0785 42.1669 52.3383 41.7552 53.3871 40.9926L55.4993 43.1048C55.0436 43.1721 54.5991 43.3223 54.1847 43.5532C53.4847 43.9433 52.9355 44.5274 52.5935 45.234C51.4919 45.438 50.4721 45.9713 49.6721 46.7712C47.5017 48.9417 47.5017 52.4733 49.6722 54.6438C50.7574 55.7289 52.1828 56.2716 53.6084 56.2716C55.0339 56.2716 56.4595 55.729 57.5448 54.6438C58.2508 53.9377 58.7454 53.0699 58.9932 52.1242L62.2905 53.2433C61.9193 54.9628 62.2994 56.7718 63.3249 58.1927L61.0948 60.4229ZM55.1574 50.822C55.166 50.8251 55.1746 50.8282 55.1833 50.8312L57.1361 51.494C56.9886 52.1595 56.6549 52.7714 56.1637 53.2627C54.7547 54.6715 52.4621 54.6717 51.0533 53.2627C49.6444 51.8538 49.6444 49.5614 51.0533 48.1524C51.3932 47.8123 51.7943 47.5466 52.2313 47.3664C52.4115 48.8666 53.4917 50.2038 55.1574 50.822ZM64.7321 56.7855C64.3551 56.1712 64.1418 55.4701 64.1081 54.7546C64.5759 55.0928 65.1476 55.4241 65.8304 55.6871L64.7321 56.7855ZM73.5408 51.2092C72.6153 52.7266 70.8201 54.2796 68.8848 54.2796C68.5227 54.2796 68.1833 54.2538 67.866 54.2079C67.8648 54.2077 67.8635 54.2075 67.8622 54.2073C65.7533 53.901 64.6188 52.7024 64.2448 52.2278C64.2249 52.1985 64.1401 52.0874 64.1275 52.069C64.0137 51.8657 63.8272 51.7022 63.5893 51.6214L55.8248 48.9862C54.5858 48.5211 53.9308 47.4601 54.231 46.4019C54.2312 46.4012 54.2314 46.4005 54.2316 46.3998C54.2319 46.399 54.2321 46.3982 54.2323 46.3974C54.3718 45.9101 54.6923 45.5059 55.1353 45.2591C55.5753 45.0139 56.084 44.9531 56.5692 45.0875L65.3185 47.8601C65.8327 48.0233 66.3816 47.7383 66.5445 47.2241C66.7073 46.71 66.4227 46.1612 65.9085 45.9982L58.95 43.7931L58.8893 43.7323C58.8887 43.7318 58.8881 43.7311 58.8874 43.7305L55.2849 40.128L58.3814 39.0192C58.3918 39.0154 58.4047 39.0106 58.4151 39.0064C58.4177 39.0053 58.4228 39.0033 58.4253 39.0023C58.4386 38.9969 58.4517 38.9912 58.4647 38.9853C60.558 38.0232 62.5479 38.599 63.3279 38.9024C66.2754 40.2286 67.8487 41.1358 68.9981 41.7986C70.5961 42.7201 71.3661 43.1642 73.5408 43.3438V51.2092ZM77.2405 50.6218H75.4941V42.0824H77.2405V50.6218ZM83.0468 50.6218H79.1936V40.2627H83.0468V50.6218Z" fill="#3878F4"/>
</svg>
