<svg width="120" height="120" viewBox="0 0 120 120" fill="none" xmlns="http://www.w3.org/2000/svg">
<rect width="120" height="120" rx="60" fill="#3878F4" fill-opacity="0.08"/>
<rect x="13" y="13" width="94" height="94" rx="47" stroke="#3878F4" stroke-opacity="0.45" stroke-width="2"/>
<path d="M74.875 55.625C72.74 55.625 70.7012 56.1666 68.9145 57.1606L67.4086 54.8576C70.3442 52.6176 72.25 49.094 72.25 45.125C72.25 38.37 66.755 32.875 60 32.875C53.245 32.875 47.75 38.37 47.75 45.125C47.75 49.0415 49.5761 52.5993 52.5809 54.8743L51.082 57.1667C49.2987 56.1762 47.2609 55.625 45.125 55.625C38.37 55.625 32.875 61.12 32.875 67.875C32.875 74.63 38.37 80.125 45.125 80.125C47.4192 80.125 49.6173 79.4985 51.544 78.3085C52.0147 79.1301 52.6448 79.8581 53.413 80.4339L54.75 81.4375V87.125H70.5V79.3148C71.8904 79.845 73.3787 80.125 74.875 80.125C81.63 80.125 87.125 74.63 87.125 67.875C87.125 61.12 81.63 55.625 74.875 55.625ZM85.375 67.875C85.375 69.9313 84.7721 71.8449 83.7466 73.4662C82.617 71.1169 80.594 69.3223 78.1738 68.4543C79.3629 67.4909 80.125 66.0209 80.125 64.375C80.125 61.4796 77.7704 59.125 74.875 59.125C72.3182 59.125 70.185 60.9634 69.7213 63.3871C69.247 62.9164 68.5942 62.625 67.875 62.625C67.5294 62.625 67.2012 62.6959 66.8985 62.8175C66.7935 62.429 66.6027 62.0799 66.3455 61.785C68.3177 59.0191 71.4441 57.375 74.875 57.375C80.6649 57.375 85.375 62.0851 85.375 67.875ZM70.5 67.2713C70.7957 67.7166 71.1571 68.1147 71.5719 68.4508C71.207 68.5811 70.8483 68.729 70.5 68.9022V67.2713ZM74.875 67.875C72.9448 67.875 71.375 66.3052 71.375 64.375H78.375C78.375 66.3052 76.8052 67.875 74.875 67.875ZM71.8615 62.625C72.4688 61.5837 73.5853 60.875 74.875 60.875C76.1647 60.875 77.2812 61.5837 77.8885 62.625H71.8615ZM74.875 69.625C75.4656 69.625 76.044 69.6959 76.6049 69.8201C76.5069 70.6925 75.7736 71.375 74.875 71.375C73.9816 71.375 73.251 70.6995 73.146 69.8332C73.7113 69.7099 74.2853 69.625 74.875 69.625ZM67.4533 58.1222C66.44 58.8958 65.5422 59.8337 64.795 60.9179C64.6576 60.8951 64.5185 60.875 64.375 60.875C64.0294 60.875 63.7012 60.9459 63.3985 61.0675C63.0966 59.9519 62.0851 59.125 60.875 59.125C60.567 59.125 60.2747 59.188 60 59.286V57.375C62.1595 57.375 64.1869 56.8089 65.95 55.8236L67.4533 58.1222ZM60 55.625C59.9449 55.625 59.8915 55.6198 59.8372 55.6189C59.4724 54.6056 58.5116 53.875 57.375 53.875C56.6601 53.875 56.0126 54.1637 55.5392 54.6284C54.3195 54.057 53.2459 53.2756 52.356 52.3341C53.0814 50.228 54.6371 48.5533 56.5901 47.6398C56.941 49.2025 58.334 50.375 60 50.375C61.666 50.375 63.059 49.2025 63.4099 47.6406C65.355 48.5506 66.9072 50.2149 67.6361 52.3096C65.7199 54.3449 63.0091 55.625 60 55.625ZM56.5 41.625H63.5C63.5 43.5553 61.9303 45.125 60 45.125C58.0697 45.125 56.5 43.5553 56.5 41.625ZM56.9865 39.875C57.5938 38.8337 58.7103 38.125 60 38.125C61.2897 38.125 62.4062 38.8337 63.0135 39.875H56.9865ZM60 46.875C60.5906 46.875 61.169 46.9459 61.7299 47.0701C61.6319 47.9425 60.8986 48.625 60 48.625C59.1014 48.625 58.3681 47.9425 58.2701 47.0701C58.831 46.9459 59.4094 46.875 60 46.875ZM60 34.625C65.7899 34.625 70.5 39.3351 70.5 45.125C70.5 47.1812 69.8971 49.0949 68.8716 50.7162C67.742 48.3669 65.719 46.5722 63.2987 45.7042C64.4879 44.7409 65.25 43.2709 65.25 41.625C65.25 38.7296 62.8954 36.375 60 36.375C57.1046 36.375 54.75 38.7296 54.75 41.625C54.75 43.2709 55.5121 44.7409 56.7013 45.7034C54.274 46.574 52.2458 48.3756 51.1179 50.7346C50.0845 49.0966 49.5 47.169 49.5 45.125C49.5 39.3351 54.2101 34.625 60 34.625ZM54.0465 55.828C54.2862 55.9601 54.5295 56.087 54.7798 56.2051C54.7684 56.3031 54.75 56.3994 54.75 56.5V60.3001C54.1051 59.4794 53.3658 58.7479 52.5459 58.124L54.0465 55.828ZM45.125 57.375C49.3206 57.375 53.0779 59.8469 54.75 63.6829V64.7092L51.978 66.0952C50.7968 66.6859 49.9673 67.7402 49.6488 68.9775C49.2541 68.7727 48.8455 68.5995 48.429 68.4508C49.6146 67.4865 50.375 66.0191 50.375 64.375C50.375 61.4796 48.0204 59.125 45.125 59.125C42.2296 59.125 39.875 61.4796 39.875 64.375C39.875 66.0209 40.6371 67.4909 41.8263 68.4534C39.406 69.3214 37.3821 71.116 36.2534 73.4654C35.2279 71.8449 34.625 69.9313 34.625 67.875C34.625 62.0851 39.3351 57.375 45.125 57.375ZM41.625 64.375H48.625C48.625 66.3052 47.0553 67.875 45.125 67.875C43.1947 67.875 41.625 66.3052 41.625 64.375ZM42.1115 62.625C42.7188 61.5837 43.8352 60.875 45.125 60.875C46.4148 60.875 47.5312 61.5837 48.1385 62.625H42.1115ZM45.125 69.625C45.7139 69.625 46.2923 69.6924 46.8558 69.8149C46.7595 70.6899 46.0254 71.375 45.125 71.375C44.2264 71.375 43.4931 70.6925 43.3951 69.8201C43.956 69.6959 44.5344 69.625 45.125 69.625ZM45.125 78.375C42.1159 78.375 39.4051 77.0949 37.4889 75.0596C38.2177 72.9649 39.77 71.3006 41.7151 70.3906C42.066 71.9525 43.459 73.125 45.125 73.125C46.7936 73.125 48.1884 71.9499 48.5366 70.3845C48.8997 70.5542 49.2515 70.752 49.5901 70.9769C49.5971 71.0101 49.5998 71.0434 49.6068 71.0766L50.7792 76.3537C50.8029 76.4579 50.8344 76.5594 50.8624 76.6626C49.1561 77.7809 47.1874 78.375 45.125 78.375ZM68.75 85.375H56.5V81.5416C60.2949 79.6884 64.9543 79.6884 68.75 81.5416V85.375ZM68.75 79.6193C64.6244 77.8754 59.7428 78.0154 55.7239 79.9806L54.463 79.0348C53.4603 78.2831 52.7594 77.1955 52.4881 75.974L51.3156 70.696C51.2719 70.5026 51.25 70.304 51.25 70.1045C51.25 69.0633 51.8284 68.1261 52.7603 67.6606L54.75 66.6657V68.5435C54.75 69.4168 54.2644 70.2025 53.4839 70.5928L54.267 72.1581C55.6443 71.4678 56.5 70.0826 56.5 68.5435V56.5C56.5 56.017 56.8929 55.625 57.375 55.625C57.8571 55.625 58.25 56.017 58.25 56.5V70.5H60V61.75C60 61.267 60.3929 60.875 60.875 60.875C61.3571 60.875 61.75 61.267 61.75 61.75V70.5H63.5V63.5C63.5 63.017 63.8929 62.625 64.375 62.625C64.8571 62.625 65.25 63.017 65.25 63.5V70.5H67V65.25C67 64.767 67.3929 64.375 67.875 64.375C68.3571 64.375 68.75 64.767 68.75 65.25V79.6193ZM74.875 78.375C73.3621 78.375 71.8659 78.0285 70.5 77.402V70.9358C70.8124 70.7336 71.1326 70.5499 71.466 70.3941C71.8186 71.9543 73.2099 73.125 74.875 73.125C76.541 73.125 77.934 71.9525 78.2849 70.3906C80.23 71.3006 81.7822 72.9649 82.5111 75.0596C80.5949 77.0949 77.8841 78.375 74.875 78.375Z" fill="#3878F4"/>
</svg>
