<svg width="436" height="689" viewBox="0 0 436 689" fill="none" xmlns="http://www.w3.org/2000/svg">
<path d="M66.8687 460.831C88.0336 381.441 20.6906 378.265 19.1715 275.852C18.5638 233.988 40.5391 191.17 93.3501 171.799C119.275 162.166 145.148 155.55 168.238 140.043C220.897 105.217 229.096 57.5547 243.223 1.02913C274.768 -123.084 386.976 -203.084 509.763 -199.909C598.321 -197.58 678.373 -194.616 759.084 -116.179C814.528 -62.2469 813.932 3.91124 865.072 59.3253C919.352 118.021 930.56 146.178 1004.89 165.178C1075.12 182.803 1151.58 203.974 1205.35 257.535C1255.98 307.762 1248.54 360.319 1226.87 422.031C1202.97 490.041 1254.82 536.352 1308.85 562.868C1354.42 585.15 1414.87 583.192 1436.04 636.595C1458.92 694.444 1390.87 695.396 1327.63 695.396C1264.39 695.396 536.953 690.104 308.038 697.408C246.416 699.313 31.4817 698.23 3.73425 617.994C-15.2028 563.321 52.033 516.086 66.8687 460.831Z" fill="#F7FAFF"/>
</svg>
